<svg width="20" height="20" viewBox="0 0 20 20" fill="none" xmlns="http://www.w3.org/2000/svg">
<path d="M12.4999 6.66667H12.5083M3.33325 12.5L6.66659 9.16663C7.04663 8.80093 7.47774 8.6084 7.91659 8.6084C8.35543 8.6084 8.78654 8.80093 9.16659 9.16663L13.3333 13.3333M11.6666 11.6666L12.4999 10.8333C12.88 10.4676 13.3111 10.2751 13.7499 10.2751C14.1888 10.2751 14.6199 10.4676 14.9999 10.8333L16.6666 12.5M5.83325 3.33334H14.1666C15.5473 3.33334 16.6666 4.45262 16.6666 5.83334V14.1667C16.6666 15.5474 15.5473 16.6667 14.1666 16.6667H5.83325C4.45254 16.6667 3.33325 15.5474 3.33325 14.1667V5.83334C3.33325 4.45262 4.45254 3.33334 5.83325 3.33334Z" stroke="#2ACDC3" stroke-width="1.5" stroke-linecap="round" stroke-linejoin="round"/>
</svg>
