<svg width="24" height="24" viewBox="0 0 24 24" fill="none" xmlns="http://www.w3.org/2000/svg">
<path d="M18.75 3.75H5.25C4.45435 3.75 3.69129 4.06607 3.12868 4.62868C2.56607 5.19129 2.25 5.95435 2.25 6.75V14.25C2.25 15.0456 2.56607 15.8087 3.12868 16.3713C3.69129 16.9339 4.45435 17.25 5.25 17.25H13.5L18 20.25V17.25H18.75C19.5456 17.25 20.3087 16.9339 20.8713 16.3713C21.4339 15.8087 21.75 15.0456 21.75 14.25V6.75C21.75 5.95435 21.4339 5.19129 20.8713 4.62868C20.3087 4.06607 19.5456 3.75 18.75 3.75Z" stroke="black" stroke-opacity="0.4" stroke-width="2" stroke-linecap="round" stroke-linejoin="round"/>
<path d="M7.5 11.25C7.5 11.4489 7.42098 11.6397 7.28033 11.7803C7.13968 11.921 6.94891 12 6.75 12C6.55109 12 6.36032 11.921 6.21967 11.7803C6.07902 11.6397 6 11.4489 6 11.25C6 11.0511 6.07902 10.8603 6.21967 10.7197C6.36032 10.579 6.55109 10.5 6.75 10.5C6.94891 10.5 7.13968 10.579 7.28033 10.7197C7.42098 10.8603 7.5 11.0511 7.5 11.25ZM12 11.25C12 11.4489 11.921 11.6397 11.7803 11.7803C11.6397 11.921 11.4489 12 11.25 12C11.0511 12 10.8603 11.921 10.7197 11.7803C10.579 11.6397 10.5 11.4489 10.5 11.25C10.5 11.0511 10.579 10.8603 10.7197 10.7197C10.8603 10.579 11.0511 10.5 11.25 10.5C11.4489 10.5 11.6397 10.579 11.7803 10.7197C11.921 10.8603 12 11.0511 12 11.25ZM16.5 11.25C16.5 11.4489 16.421 11.6397 16.2803 11.7803C16.1397 11.921 15.9489 12 15.75 12C15.5511 12 15.3603 11.921 15.2197 11.7803C15.079 11.6397 15 11.4489 15 11.25C15 11.0511 15.079 10.8603 15.2197 10.7197C15.3603 10.579 15.5511 10.5 15.75 10.5C15.9489 10.5 16.1397 10.579 16.2803 10.7197C16.421 10.8603 16.5 11.0511 16.5 11.25Z" stroke="black" stroke-opacity="0.4" stroke-width="2" stroke-linecap="round" stroke-linejoin="round"/>
</svg>
