<svg width="24" height="24" viewBox="0 0 24 24" fill="none" xmlns="http://www.w3.org/2000/svg">
<g clip-path="url(#clip0_274_2880)">
<path d="M21.3335 2.66663H2.66683C2.31321 2.66663 1.97407 2.8071 1.72402 3.05715C1.47397 3.3072 1.3335 3.64634 1.3335 3.99996V20C1.3335 20.3536 1.47397 20.6927 1.72402 20.9428C1.97407 21.1928 2.31321 21.3333 2.66683 21.3333H21.3335C21.6871 21.3333 22.0263 21.1928 22.2763 20.9428C22.5264 20.6927 22.6668 20.3536 22.6668 20V3.99996C22.6668 3.64634 22.5264 3.3072 22.2763 3.05715C22.0263 2.8071 21.6871 2.66663 21.3335 2.66663ZM2.66683 20V3.99996H21.3335V20H2.66683Z" fill="black" fill-opacity="0.4"/>
<path d="M5.94678 9.33337C6.34234 9.33337 6.72902 9.21608 7.05792 8.99631C7.38682 8.77655 7.64316 8.46419 7.79454 8.09874C7.94591 7.73329 7.98552 7.33116 7.90835 6.94319C7.83118 6.55523 7.6407 6.19887 7.36099 5.91916C7.08129 5.63946 6.72492 5.44897 6.33696 5.3718C5.949 5.29463 5.54686 5.33424 5.18141 5.48562C4.81596 5.63699 4.5036 5.89334 4.28384 6.22223C4.06408 6.55113 3.94678 6.93781 3.94678 7.33338C3.94678 7.86381 4.15749 8.37252 4.53256 8.74759C4.90764 9.12266 5.41634 9.33337 5.94678 9.33337ZM5.94678 6.26671C6.15802 6.26539 6.3649 6.32682 6.54119 6.44322C6.71748 6.55963 6.85523 6.72575 6.93699 6.92054C7.01875 7.11533 7.04082 7.33 7.00042 7.53735C6.96002 7.7447 6.85896 7.93539 6.71005 8.08523C6.56114 8.23508 6.3711 8.33733 6.164 8.37903C5.95691 8.42073 5.7421 8.4 5.5468 8.31947C5.35151 8.23893 5.18452 8.10222 5.06702 7.92667C4.94951 7.75112 4.88678 7.54463 4.88678 7.33338C4.88853 7.05279 5.00077 6.78418 5.19918 6.58577C5.39759 6.38736 5.66619 6.27512 5.94678 6.27338V6.26671Z" fill="black" fill-opacity="0.4"/>
<path d="M15.1868 10.2467L11.5868 13.8467L8.92011 11.1801C8.7952 11.0559 8.62623 10.9862 8.45011 10.9862C8.27399 10.9862 8.10502 11.0559 7.98011 11.1801L3.94678 15.2667V17.1534L8.47344 12.6267L10.6668 14.7867L8.16678 17.2867H10.0001L15.6334 11.6534L20.0001 16.0001V14.1201L16.1268 10.2467C16.0019 10.1226 15.8329 10.0529 15.6568 10.0529C15.4807 10.0529 15.3117 10.1226 15.1868 10.2467Z" fill="black" fill-opacity="0.4"/>
</g>
<defs>
<clipPath id="clip0_274_2880">
<rect width="24" height="24" fill="white"/>
</clipPath>
</defs>
</svg>
