<svg width="253" height="318" viewBox="0 0 253 318" fill="none" xmlns="http://www.w3.org/2000/svg">
<mask id="mask0_10_375" style="mask-type:luminance" maskUnits="userSpaceOnUse" x="1" y="8" width="252" height="310">
<path d="M213.051 249.845C207.691 259.632 200.627 268.216 192.314 275.284C184.562 281.876 175.742 287.133 166.219 290.804C166.952 292.911 167.352 295.173 167.352 297.529C167.352 303.181 165.058 308.299 161.348 312.002C157.64 315.707 152.513 317.998 146.854 317.998C141.195 317.998 136.07 315.707 132.362 312.002C128.652 308.299 126.358 303.181 126.358 297.529C126.358 297.207 126.365 296.885 126.381 296.565C115.772 295.712 105.434 292.997 95.8361 288.591C85.4061 283.802 75.8555 277.024 67.7862 268.476C65.1684 267.752 62.5474 266.858 59.9172 265.839C54.2256 267.215 47.8179 266.977 41.9354 266.881L43.2058 262.66C43.5693 261.448 43.8465 260.216 44.0328 258.974C44.1498 258.194 44.2345 257.423 44.2823 256.667C38.7524 256.487 33.0623 254.864 29.6652 252.607L32.317 249.728C33.5074 248.435 34.6623 247.078 35.7772 245.66C36.0421 245.324 36.3023 244.987 36.558 244.65C31.6009 243.655 27.1274 241.551 22.2412 238.92L26.5114 235.789C28.3455 234.443 30.0964 232.938 31.7472 231.29H31.7595C33.1855 229.866 34.5206 228.341 35.7557 226.723C35.6494 223.066 35.6602 218.725 35.9096 214.097C26.3113 210.658 18.6932 201.456 13.0571 186.486C7.34084 171.304 3.56185 149.97 1.72163 122.483V122.417C-1.35899e-05 86.5081 2.9582 62.1698 9.52908 48.2951C13.4313 40.0553 18.6624 35.2494 25.0193 33.6793C31.2729 32.1352 38.3397 33.8438 46.0439 38.6035C60.7919 47.7169 78.4734 68.4935 97.5947 99.3123C114.074 91.4846 133.235 90.3681 142.619 91.1063C146.293 66.4789 161.727 30.885 170.062 20.4075C186.301 -1.04904e-05 205.496 0.681262 225.705 56.2644L225.745 56.3951C251.833 138.031 253.001 181.782 229.253 187.654C231.399 193.079 233.058 198.09 234.056 201.757C236.523 202.522 238.842 203.251 240.773 203.906L243.557 204.853L242.989 207.715C242.271 211.329 240.51 214.346 238.007 216.619H238.013C242.575 217.55 247.518 217.23 252.171 217.208C248.767 221.973 240.935 230.217 232.428 233.17C233.409 233.871 234.424 234.508 235.466 235.071L241.709 238.442C234.013 241.576 227.733 244.153 221.465 243.42L221.521 243.487C218.478 245.951 215.701 248.093 213.053 249.846" fill="white"/>
</mask>
<g mask="url(#mask0_10_375)">
<path d="M253 0H0V318H253V0Z" fill="url(#paint0_linear_10_375)"/>
</g>
<path d="M91.6829 102.502C73.1791 72.7303 56.3261 52.8103 42.533 44.2859C36.4086 40.5012 31.0543 39.0772 26.6193 40.1721C22.2905 41.241 18.5685 44.8488 15.5841 51.1494C9.46907 64.0598 6.7434 87.3108 8.40036 122.037C10.2005 148.878 13.8394 169.577 19.32 184.13C23.8597 196.19 29.5744 203.849 36.4595 207.108C37.6452 195.876 40.4279 184.149 46.2888 176.968C41.8292 191.798 41.0115 219.12 42.9749 234.611L37.1478 235.346C36.9276 235.573 36.7058 235.798 36.4826 236.022L36.4887 236.029C35.9189 236.598 35.3322 237.156 34.7317 237.703C38.7078 240.997 45.5235 244.375 50.6114 244.456C48.3893 244.904 46.3166 245.157 44.3547 245.242C43.2783 246.843 42.1741 248.364 41.0454 249.8C40.7374 250.192 40.4232 250.581 40.106 250.969C43.7834 252.818 52.7704 255.04 56.5879 253.46C55.0849 254.711 53.1554 255.56 51.001 256.07C50.9625 257.4 50.8501 258.694 50.6622 259.944L50.6284 260.167C56.4077 259.763 68.1528 258.2 73.1899 255.935C71.8979 258.391 70.2964 260.307 68.4639 261.8C80.7109 265.8 91.0839 266.792 99.3626 266.248C95.7206 268.07 92.1049 269.247 88.5014 269.889C105.524 277.29 123.924 279.769 141.749 277.568C142.316 277.499 142.88 277.423 143.445 277.343C143.736 277.294 144.03 277.251 144.326 277.216C162.454 274.509 179.879 266.941 194.521 254.768C191.551 254.248 188.355 253.116 184.773 251.289C194.821 250.243 205.681 246.343 213.909 240.805C211.641 239.473 209.304 237.603 206.842 235.072C213.145 237.284 218.908 240.281 226.244 236.841C225.17 235.93 224.142 234.946 223.167 233.894C220.734 233.325 218.356 232.07 216.12 229.916C222.722 230.472 232.45 226.914 236.292 223.086C233.906 222.575 231.593 221.842 229.387 220.899C227.225 221.357 224.896 221.503 222.463 221.304C224.33 220.934 233.974 213.651 235.486 209.162C232.597 208.23 221.162 205.194 218.085 196.569C220.427 197.46 223.37 198.429 226.461 199.406C222.907 187.369 216.772 172.401 208.059 154.503C215.041 158.869 221.664 170.245 226.612 181.371C246.796 177.705 244.4 136.764 219.413 58.5435C202.332 11.5694 187.405 9.36099 175.303 24.5736C161.505 41.9161 149.432 81.8329 142.43 107.285C141.848 104.593 141.703 101.37 141.909 97.7714C120.997 96.132 93.728 103.179 77.0567 115.818C81.0051 110.288 86.073 105.927 91.6814 102.503" fill="white"/>
<mask id="mask1_10_375" style="mask-type:luminance" maskUnits="userSpaceOnUse" x="95" y="197" width="81" height="59">
<path d="M161.807 214.806C161.989 216.169 162.072 217.547 162.056 218.929C162.047 219.763 162.005 220.59 161.927 221.407C163.581 221.706 165.215 222.272 166.768 223.117C171.473 225.679 174.043 229.582 174.876 233.809C175.443 236.695 175.183 239.72 174.225 242.554C173.276 245.359 171.639 247.984 169.448 250.099C165.852 253.568 160.777 255.687 154.796 255.034C150.781 254.595 147.145 252.879 144.321 250.286C142.873 248.956 141.728 247.767 140.85 246.392C138.374 247.066 135.807 247.407 133.223 247.406C129.872 247.403 126.509 246.821 123.293 245.637C118.467 243.861 114.295 240.859 111.108 237.031C108.385 233.762 106.388 229.896 105.322 225.685C98.3016 222.771 93.9236 215.314 96.446 208.456C98.2662 215.223 104.313 220.03 111.328 220.269C114.845 220.389 118.194 219.355 120.946 217.462C123.694 215.573 125.853 212.818 126.997 209.49L129.046 203.524L132.842 208.573C135.072 211.54 138.153 213.608 141.555 214.622C144.952 215.633 148.665 215.586 152.159 214.32C159.166 211.787 163.692 204.97 163.313 197.54C166.005 203.49 165.076 210.06 161.808 214.806" fill="white"/>
</mask>
<g mask="url(#mask1_10_375)">
<path d="M175.444 197.542H93.922V255.689H175.444V197.542Z" fill="url(#paint1_linear_10_375)"/>
</g>
<path d="M130.623 285.027C116.605 285.21 102.487 282.692 89.0851 277.371C92.1542 279.295 95.3357 281.013 98.6111 282.517C107.771 286.723 117.659 289.265 127.797 289.972C128.509 288.185 129.464 286.523 130.623 285.025" fill="white"/>
<path d="M145.026 283.881L144.672 283.932C141.737 284.398 139.11 285.788 137.103 287.793C134.61 290.283 133.065 293.726 133.065 297.529C133.065 301.333 134.608 304.774 137.103 307.264C139.596 309.755 143.044 311.296 146.852 311.296C150.661 311.296 154.109 309.754 156.602 307.264C159.096 304.774 160.639 301.331 160.639 297.529C160.639 293.728 159.096 290.283 156.602 287.793C154.109 285.302 150.661 283.761 146.852 283.761C146.233 283.761 145.624 283.802 145.026 283.881Z" fill="white"/>
<path d="M162.969 284.882C172.14 281.463 180.603 276.485 187.99 270.206C191.107 267.556 194.035 264.671 196.748 261.571C185.323 270.612 172.414 277.1 158.849 280.931C159.737 281.573 160.573 282.285 161.346 283.057C161.922 283.632 162.464 284.242 162.969 284.882Z" fill="white"/>
<mask id="mask2_10_375" style="mask-type:luminance" maskUnits="userSpaceOnUse" x="26" y="65" width="38" height="94">
<path d="M63.4483 125.401L63.4529 129.172C57.769 128.493 53.7729 127.966 48.2122 130.493C48.9252 135.54 53.0337 141.47 57.21 144.458C53.5758 144.432 47.0326 144.627 42.7454 148.061C42.5067 151.723 44.1622 156.212 46.1086 158.854C40.146 157.991 35.6802 147.807 34.9287 143.646C39.0711 142.123 42.5006 140.958 47.0002 140.529C43.3075 136.23 41.746 132.759 39.8057 127.628C43.5847 125.27 46.472 123.568 50.9763 122.565C52.8504 122.147 54.76 121.917 56.6772 121.884C56.1736 111.337 53.4741 101.121 48.8728 91.8398C43.7695 81.5423 36.3208 72.4012 26.9349 65.2347C56.5047 78.3466 63.4282 108.819 63.4483 125.401Z" fill="white"/>
</mask>
<g mask="url(#mask2_10_375)">
<path d="M63.4529 65.2347H26.9349V158.854H63.4529V65.2347Z" fill="url(#paint2_linear_10_375)"/>
</g>
<mask id="mask3_10_375" style="mask-type:luminance" maskUnits="userSpaceOnUse" x="175" y="40" width="36" height="99">
<path d="M197.427 40.8626C190.229 50.1975 185.563 63.3093 183.3 74.5896C181.262 84.7441 181.301 95.3077 183.548 105.627C190.089 103.994 194.949 104.872 201.325 106.819C200.781 112.28 200.122 116.135 197.72 121.135C200.876 120.604 204.129 120.48 207.395 120.778L210.202 121.033C210.675 126.685 208.345 135.544 202.362 138.788C203.57 135.978 204.498 130.757 203.778 127.303C197.877 125.942 193.201 127.186 188.876 127.572C192.384 123.949 194.561 116.284 193.951 111.749C190.049 111.109 186.061 111.541 182.385 113.012L178.879 114.414L177.904 110.76C174.591 98.3512 174.262 85.533 176.721 73.2824C178.56 64.1213 187.474 41.2779 197.427 40.8642" fill="white"/>
</mask>
<g mask="url(#mask3_10_375)">
<path d="M210.674 40.8626H174.262V138.788H210.674V40.8626Z" fill="url(#paint3_linear_10_375)"/>
</g>
<mask id="mask4_10_375" style="mask-type:luminance" maskUnits="userSpaceOnUse" x="103" y="167" width="48" height="31">
<path d="M125.186 167.658C138.203 166.051 149.574 171.377 150.587 179.555C151.6 187.734 141.869 195.666 128.852 197.273C115.835 198.88 104.463 193.554 103.45 185.376C102.436 177.198 112.167 169.265 125.184 167.658" fill="white"/>
</mask>
<g mask="url(#mask4_10_375)">
<path d="M151.599 166.05H102.438V198.88H151.599V166.05Z" fill="url(#paint4_linear_10_375)"/>
</g>
<path d="M135.151 242.323C136.463 242.217 137.765 242.002 139.045 241.68H139.047L143.827 240.126C144.386 242.995 145.667 244.711 147.719 246.597C149.772 248.482 152.413 249.731 155.322 250.049C159.682 250.526 163.367 248.996 165.966 246.488C167.574 244.936 168.773 243.015 169.466 240.965C170.15 238.943 170.34 236.801 169.941 234.774C169.38 231.929 167.615 229.285 164.368 227.517C161.782 226.109 158.867 225.83 156.209 226.528C154.594 226.952 153.074 227.738 151.78 228.85C155.926 230.703 158.708 234.385 158.165 238.125C155.695 233.24 148.841 231.53 143.552 232.951C140.91 233.662 138.699 235.247 137.194 237.333C136.141 238.791 135.429 240.498 135.147 242.326" fill="white"/>
<path d="M146.109 227.612C148.352 224.612 151.494 222.58 154.933 221.677C155.576 221.508 156.231 221.379 156.893 221.29C156.967 220.645 157.013 219.999 157.033 219.357C156.217 219.853 155.35 220.272 154.437 220.602C149.546 222.369 144.369 222.442 139.638 221.033C136.524 220.107 133.6 218.535 131.073 216.384C129.419 219.003 127.255 221.231 124.744 222.957C120.838 225.643 116.092 227.109 111.115 226.94L110.963 226.932C111.902 229.46 113.259 231.789 114.957 233.828C117.58 236.977 121.026 239.452 125.021 240.922C126.687 241.536 128.392 241.956 130.103 242.185C130.429 239.334 131.493 236.662 133.127 234.4C135.298 231.395 138.472 229.114 142.259 228.096C143.557 227.747 144.851 227.595 146.109 227.607" fill="white"/>
<path fill-rule="evenodd" clip-rule="evenodd" d="M133.829 302.057C133.754 295.293 138.619 289.479 145.297 288.351C151.976 287.223 158.485 291.117 160.64 297.529C160.643 292.053 157.398 287.095 152.373 284.902C147.348 282.709 141.5 283.696 137.477 287.418C133.454 291.138 132.021 296.887 133.828 302.057" fill="#CCCCCC"/>
<mask id="mask5_10_375" style="mask-type:luminance" maskUnits="userSpaceOnUse" x="147" y="138" width="25" height="24">
<path d="M159.224 138.014C165.738 138.014 171.019 143.288 171.019 149.794C171.019 156.301 165.738 161.574 159.224 161.574C152.71 161.574 147.428 156.301 147.428 149.794C147.428 143.288 152.709 138.014 159.224 138.014Z" fill="white"/>
</mask>
<g mask="url(#mask5_10_375)">
<path d="M171.019 138.014H147.428V161.573H171.019V138.014Z" fill="url(#paint5_linear_10_375)"/>
</g>
<mask id="mask6_10_375" style="mask-type:luminance" maskUnits="userSpaceOnUse" x="71" y="153" width="29" height="30">
<path d="M87.7223 158.805C79.1325 163.406 74.3741 172.91 75.8417 182.534C78.4349 170.703 87.8624 161.568 99.7815 159.335C91.7738 153.399 81.3177 151.869 71.941 155.263C77.4417 154.794 82.9531 156.03 87.7238 158.805" fill="white"/>
</mask>
<g mask="url(#mask6_10_375)">
<path d="M99.7799 151.869H71.9395V182.534H99.7799V151.869Z" fill="url(#paint6_linear_10_375)"/>
</g>
<path fill-rule="evenodd" clip-rule="evenodd" d="M26.6177 40.1721C22.2889 41.241 18.5669 44.8488 15.5825 51.1494C10.9304 60.9733 8.2386 76.7795 7.9491 99.0724C12.4596 17.5332 60.4207 72.3981 83.6922 108.42C86.1699 106.19 88.8571 104.227 91.6829 102.502C73.1791 72.7303 56.3261 52.8103 42.5329 44.2859C36.4086 40.5012 31.0542 39.0772 26.6192 40.1721" fill="#CCCCCC"/>
<path fill-rule="evenodd" clip-rule="evenodd" d="M175.306 24.5705C161.508 41.913 149.435 81.8299 142.433 107.282C161.174 62.3666 190.117 -15.1772 223.004 70.0237C221.864 66.2897 220.668 62.462 219.416 58.5389C202.335 11.5648 187.408 9.35639 175.306 24.569" fill="#CCCCCC"/>
<path fill-rule="evenodd" clip-rule="evenodd" d="M217.492 110.936C218.556 84.8764 192.117 81.1824 197.427 40.8642C190.229 50.199 185.563 63.3109 183.3 74.5911C181.262 84.7457 181.301 95.3093 183.547 105.628C190.089 103.995 194.949 104.873 201.324 106.82C200.781 112.281 200.122 116.137 197.719 121.136C200.876 120.606 204.129 120.481 207.395 120.779L210.202 121.035C210.586 125.616 209.127 132.304 205.376 136.4C212.675 129.95 217.092 120.769 217.494 110.936" fill="#CCCCCC"/>
<path fill-rule="evenodd" clip-rule="evenodd" d="M26.9349 65.2347C45.6466 95.4261 18.1927 107.595 25.375 134.479C28.0298 144.416 34.5868 152.855 43.5446 157.894C38.894 155.083 35.5678 147.185 34.9287 143.646C39.0711 142.123 42.5006 140.958 47.0002 140.529C43.3075 136.23 41.746 132.759 39.8057 127.628C43.5847 125.27 46.472 123.568 50.9763 122.565C52.8504 122.147 54.76 121.917 56.6772 121.884C56.1736 111.337 53.4741 101.121 48.8728 91.8398C43.7695 81.5423 36.3208 72.4012 26.9349 65.2347Z" fill="#CCCCCC"/>
<path fill-rule="evenodd" clip-rule="evenodd" d="M46.2872 176.967C29.1539 187.364 16.7436 171.91 9.05322 130.603C11.0151 153.322 14.4368 171.165 19.3184 184.13C23.8581 196.19 29.5728 203.849 36.4578 207.108C37.6436 195.876 40.4262 184.149 46.2872 176.968" fill="#CCCCCC"/>
<path fill-rule="evenodd" clip-rule="evenodd" d="M233.645 109.025C236.971 148.902 228.444 164.061 208.062 154.502C215.044 158.868 221.667 170.243 226.615 181.37C241.886 178.595 244.232 154.483 233.645 109.027" fill="#CCCCCC"/>
<path fill-rule="evenodd" clip-rule="evenodd" d="M55.2789 236.645C45.1446 218.497 41.9492 197.29 46.2888 176.965C41.8291 191.795 41.0114 219.117 42.9748 234.608L37.1477 235.343C36.9275 235.57 36.7058 235.795 36.4825 236.019L36.4886 236.026C35.9189 236.595 35.3321 237.153 34.7316 237.7C38.7077 240.994 45.5234 244.372 50.6113 244.453C48.3892 244.901 46.3165 245.154 44.3546 245.239C43.2782 246.84 42.1741 248.361 41.0453 249.797C40.7373 250.189 40.4232 250.578 40.1059 250.966C43.7833 252.814 52.7703 255.037 56.5878 253.457C55.0848 254.708 53.1553 255.556 51.0009 256.067C50.9624 257.397 50.85 258.691 50.6622 259.941L50.6283 260.164C56.4076 259.759 68.1527 258.197 73.1898 255.932C71.8978 258.388 70.2963 260.304 68.4638 261.797C80.7108 265.797 91.0838 266.789 99.3625 266.245C90.8929 265.637 82.5849 263.623 74.779 260.282C76.9565 257.167 78.2839 253.54 78.6319 249.759C73.1636 252.796 67.0994 254.618 60.8596 255.098C63.1664 252.948 65.059 250.392 66.4418 247.56C61.0059 249.639 55.1018 250.182 49.3779 249.13C53.5896 248.778 57.5303 246.908 60.4654 243.869C54.9724 243.618 49.7059 241.608 45.4464 238.136C48.7696 238.017 52.0666 237.516 55.2758 236.642" fill="#CCCCCC"/>
<path fill-rule="evenodd" clip-rule="evenodd" d="M213.909 240.802C211.64 239.47 209.304 237.6 206.842 235.069C213.145 237.28 218.907 240.278 226.244 236.838C225.17 235.927 224.142 234.943 223.167 233.891C220.734 233.322 218.356 232.067 216.12 229.913C222.722 230.469 232.45 226.911 236.292 223.083C233.906 222.572 231.593 221.839 229.387 220.896C227.225 221.354 224.896 221.5 222.463 221.3C224.329 220.931 233.974 213.648 235.486 209.159C232.597 208.227 221.162 205.191 218.085 196.565C220.427 197.457 223.37 198.426 226.461 199.403C222.907 187.366 216.772 172.398 208.059 154.5C212.424 166.3 215.587 178.508 217.501 190.94C214.252 190.391 211.081 189.442 208.066 188.113C209.292 198.885 216.745 207.93 227.097 211.201C223.635 216.19 218.193 219.452 212.156 220.155C214.637 221.929 217.366 223.33 220.255 224.316C214.962 225.102 209.558 224.078 204.92 221.411C207.119 226.386 210.395 230.811 214.514 234.368C209.552 232.816 204.859 230.512 200.598 227.535C200.621 232.432 202.635 237.11 206.181 240.492C199.726 245.304 192.481 248.956 184.772 251.286C194.82 250.24 205.679 246.34 213.907 240.802" fill="#CCCCCC"/>
<path fill-rule="evenodd" clip-rule="evenodd" d="M164.597 231.144C170.845 239.232 162.149 249.213 152.65 247.3C148.707 246.505 145.408 243.823 143.828 240.126C144.387 242.995 145.668 244.711 147.721 246.597C149.774 248.482 152.415 249.731 155.324 250.049C159.683 250.526 163.368 248.996 165.968 246.488C167.575 244.936 168.775 243.015 169.468 240.965C170.152 238.943 170.341 236.801 169.942 234.774C169.382 231.929 167.617 229.285 164.369 227.517C161.784 226.109 158.869 225.83 156.211 226.528C154.595 226.952 153.075 227.738 151.782 228.85C156.009 226.211 161.55 227.204 164.596 231.146" fill="#CCCCCC"/>
<defs>
<linearGradient id="paint0_linear_10_375" x1="172.321" y1="362.292" x2="85.7447" y2="-22.8487" gradientUnits="userSpaceOnUse">
<stop stop-color="#FF00FF"/>
<stop offset="1" stop-color="#FFFF00"/>
</linearGradient>
<linearGradient id="paint1_linear_10_375" x1="165.604" y1="363.801" x2="79.0275" y2="-21.34" gradientUnits="userSpaceOnUse">
<stop stop-color="#FF00FF"/>
<stop offset="1" stop-color="#FFFF00"/>
</linearGradient>
<linearGradient id="paint2_linear_10_375" x1="105.008" y1="377.422" x2="18.4327" y2="-7.71914" gradientUnits="userSpaceOnUse">
<stop stop-color="#FF00FF"/>
<stop offset="1" stop-color="#FFFF00"/>
</linearGradient>
<linearGradient id="paint3_linear_10_375" x1="249.946" y1="344.842" x2="163.371" y2="-40.3004" gradientUnits="userSpaceOnUse">
<stop stop-color="#FF00FF"/>
<stop offset="1" stop-color="#FFFF00"/>
</linearGradient>
<linearGradient id="paint4_linear_10_375" x1="167.78" y1="363.312" x2="81.2035" y2="-21.829" gradientUnits="userSpaceOnUse">
<stop stop-color="#FF00FF"/>
<stop offset="1" stop-color="#FFFF00"/>
</linearGradient>
<linearGradient id="paint5_linear_10_375" x1="205.442" y1="354.846" x2="118.866" y2="-30.295" gradientUnits="userSpaceOnUse">
<stop stop-color="#FF00FF"/>
<stop offset="1" stop-color="#FFFF00"/>
</linearGradient>
<linearGradient id="paint6_linear_10_375" x1="131.881" y1="371.382" x2="45.3045" y2="-13.7599" gradientUnits="userSpaceOnUse">
<stop stop-color="#FF00FF"/>
<stop offset="1" stop-color="#FFFF00"/>
</linearGradient>
</defs>
</svg>
