<svg width="24" height="30" viewBox="0 0 24 30" fill="none" xmlns="http://www.w3.org/2000/svg">
<g clip-path="url(#clip0_55_183)">
<mask id="mask0_55_183" style="mask-type:luminance" maskUnits="userSpaceOnUse" x="0" y="0" width="24" height="30">
<path d="M20.2104 23.5703C19.7019 24.4936 19.0319 25.3034 18.2433 25.9702C17.508 26.592 16.6712 27.0881 15.7678 27.4344C15.8374 27.6331 15.8754 27.8465 15.8754 28.0688C15.8754 28.602 15.6577 29.0848 15.3058 29.4342C14.954 29.7837 14.4677 29.9998 13.9309 29.9998C13.394 29.9998 12.9079 29.7837 12.5561 29.4342C12.2042 29.0848 11.9866 28.602 11.9866 28.0688C11.9866 28.0383 11.9873 28.008 11.9887 27.9778C10.9824 27.8973 10.0018 27.6412 9.09124 27.2256C8.10184 26.7738 7.19585 26.1343 6.43039 25.3279C6.18205 25.2596 5.93342 25.1753 5.68391 25.0791C5.144 25.209 4.53616 25.1865 3.97813 25.1775L4.09865 24.7792C4.13312 24.6649 4.15942 24.5487 4.17709 24.4315C4.1882 24.3579 4.19623 24.2852 4.20076 24.2138C3.67618 24.1969 3.13642 24.0438 2.81416 23.8308L3.06571 23.5592C3.17863 23.4372 3.2882 23.3093 3.39396 23.1755C3.41908 23.1437 3.44377 23.1119 3.46802 23.0802C2.99779 22.9863 2.57342 22.7878 2.10991 22.5396L2.51499 22.2442C2.68897 22.1173 2.85507 21.9752 3.01166 21.8198H3.01283C3.1481 21.6855 3.27476 21.5416 3.39191 21.389C3.38183 21.0439 3.38286 20.6344 3.40652 20.1978C2.496 19.8734 1.77334 19.0053 1.23869 17.593C0.696436 16.1608 0.337954 14.1481 0.163388 11.555V11.5488C7.01249e-05 8.16112 0.280691 5.86506 0.904016 4.55613C1.27418 3.77878 1.77042 3.3254 2.37344 3.17728C2.96667 3.03161 3.63704 3.1928 4.36788 3.64183C5.76689 4.50158 7.44418 6.46164 9.25807 9.36907C10.8213 8.63061 12.639 8.52528 13.5292 8.59492C13.8777 6.27158 15.3417 2.91366 16.1325 1.92522C17.6729 -1.4782e-05 19.4938 0.0642562 21.4108 5.30795L21.4146 5.32028C23.8893 13.0218 24.0002 17.1492 21.7474 17.7031C21.951 18.215 22.1083 18.6877 22.203 19.0337C22.437 19.1058 22.657 19.1746 22.8402 19.2364L23.1043 19.3257L23.0504 19.5957C22.9823 19.9367 22.8152 20.2213 22.5778 20.4358H22.5784C23.0111 20.5235 23.48 20.4934 23.9215 20.4913C23.5985 20.9408 22.8555 21.7186 22.0486 21.9971C22.1416 22.0633 22.2379 22.1234 22.3368 22.1765L22.929 22.4945C22.1989 22.7901 21.6032 23.0333 21.0086 22.9641L21.0139 22.9705C20.7252 23.2029 20.4619 23.405 20.2106 23.5704" fill="white"/>
</mask>
<g mask="url(#mask0_55_183)">
<path d="M24 0H0V30H24V0Z" fill="url(#paint0_linear_55_183)"/>
</g>
<path d="M8.69702 9.67C6.94171 6.86136 5.34301 4.98212 4.03457 4.17793C3.4536 3.82089 2.94568 3.68654 2.52497 3.78984C2.11434 3.89067 1.76126 4.23103 1.47816 4.82543C0.898073 6.04339 0.63951 8.23688 0.796693 11.513C0.967461 14.0451 1.31265 15.9979 1.83255 17.3708C2.26319 18.5085 2.8053 19.231 3.45843 19.5385C3.57091 18.4789 3.83487 17.3725 4.39086 16.6951C3.96781 18.0942 3.89024 20.6717 4.07649 22.1331L3.52372 22.2024C3.50283 22.2239 3.4818 22.2451 3.46062 22.2663L3.4612 22.2669C3.40715 22.3205 3.35149 22.3732 3.29452 22.4249C3.6717 22.7356 4.31825 23.0542 4.8009 23.0619C4.59011 23.1041 4.39349 23.1281 4.20738 23.1361C4.10527 23.2871 4.00053 23.4306 3.89345 23.5661C3.86424 23.6031 3.83444 23.6398 3.80434 23.6763C4.15318 23.8507 5.00571 24.0604 5.36784 23.9114C5.22527 24.0293 5.04223 24.1094 4.83786 24.1576C4.83421 24.2831 4.82355 24.4051 4.80573 24.523L4.80251 24.5441C5.35075 24.5059 6.46491 24.3585 6.94274 24.1448C6.82018 24.3765 6.66825 24.5573 6.49442 24.6981C7.65619 25.0755 8.64019 25.1691 9.42552 25.1177C9.08004 25.2896 8.73704 25.4006 8.39522 25.4613C10.01 26.1594 11.7555 26.3933 13.4464 26.1857C13.5001 26.1791 13.5536 26.172 13.6072 26.1645C13.6348 26.1598 13.6627 26.1558 13.6908 26.1524C15.4104 25.8971 17.0635 25.1832 18.4524 24.0347C18.1706 23.9857 17.8675 23.8789 17.5277 23.7065C18.4809 23.6079 19.5111 23.2399 20.2916 22.7175C20.0764 22.5919 19.8548 22.4154 19.6212 22.1766C20.2191 22.3853 20.7657 22.668 21.4617 22.3435C21.3599 22.2576 21.2623 22.1647 21.1698 22.0655C20.939 22.0118 20.7135 21.8934 20.5013 21.6902C21.1276 21.7427 22.0504 21.407 22.4149 21.0459C22.1886 20.9977 21.9692 20.9285 21.7598 20.8396C21.5547 20.8828 21.3339 20.8966 21.103 20.8777C21.2801 20.8429 22.195 20.1558 22.3385 19.7323C22.0644 19.6444 20.9796 19.358 20.6877 18.5442C20.9099 18.6284 21.1891 18.7198 21.4823 18.8119C21.1451 17.6763 20.5631 16.2643 19.7366 14.5758C20.3989 14.9877 21.0272 16.0609 21.4966 17.1105C23.4113 16.7646 23.184 12.9023 20.8137 5.52299C19.1933 1.09146 17.7774 0.883126 16.6293 2.31827C15.3205 3.95436 14.1752 7.7201 13.511 10.1212C13.4557 9.86731 13.442 9.56322 13.4616 9.22373C11.4778 9.06907 8.89101 9.73384 7.30955 10.9263C7.6841 10.4045 8.16485 9.9931 8.69687 9.67015" fill="white"/>
<mask id="mask1_55_183" style="mask-type:luminance" maskUnits="userSpaceOnUse" x="9" y="18" width="8" height="7">
<path d="M15.3491 20.2647C15.3663 20.3933 15.3742 20.5233 15.3728 20.6537C15.3719 20.7323 15.368 20.8104 15.3605 20.8874C15.5174 20.9157 15.6724 20.9691 15.8198 21.0487C16.2661 21.2905 16.5099 21.6587 16.5889 22.0575C16.6427 22.3297 16.618 22.6151 16.5271 22.8824C16.4371 23.1471 16.2818 23.3947 16.074 23.5942C15.7329 23.9215 15.2514 24.1214 14.684 24.0598C14.3032 24.0184 13.9583 23.8565 13.6904 23.6119C13.553 23.4864 13.4444 23.3743 13.3611 23.2446C13.1262 23.3081 12.8827 23.3403 12.6376 23.3402C12.3197 23.3399 12.0007 23.285 11.6956 23.1733C11.2378 23.0058 10.8421 22.7226 10.5397 22.3614C10.2814 22.053 10.092 21.6883 9.99088 21.291C9.3249 21.0161 8.90959 20.3126 9.14887 19.6657C9.32154 20.304 9.89519 20.7576 10.5606 20.7801C10.8942 20.7914 11.212 20.6939 11.473 20.5153C11.7336 20.3371 11.9384 20.0771 12.047 19.7632L12.2414 19.2004L12.6015 19.6767C12.813 19.9566 13.1053 20.1517 13.428 20.2473C13.7503 20.3428 14.1025 20.3383 14.4339 20.2189C15.0986 19.9799 15.5279 19.3368 15.492 18.6359C15.7473 19.1972 15.6592 19.817 15.3493 20.2647" fill="white"/>
</mask>
<g mask="url(#mask1_55_183)">
<path d="M16.643 18.636H8.90967V24.1216H16.643V18.636Z" fill="url(#paint1_linear_55_183)"/>
</g>
<path d="M12.3911 26.8893C11.0613 26.9066 9.72202 26.6691 8.45068 26.1671C8.74182 26.3486 9.04362 26.5106 9.35434 26.6525C10.2232 27.0493 11.1612 27.2891 12.123 27.3559C12.1905 27.1873 12.2811 27.0305 12.3911 26.8892" fill="white"/>
<path d="M13.7577 26.7812L13.7241 26.786C13.4456 26.83 13.1964 26.9611 13.0061 27.1503C12.7696 27.3852 12.623 27.71 12.623 28.0688C12.623 28.4276 12.7694 28.7523 13.0061 28.9872C13.2426 29.2222 13.5696 29.3676 13.9309 29.3676C14.2922 29.3676 14.6192 29.2221 14.8557 28.9872C15.0924 28.7523 15.2388 28.4275 15.2388 28.0688C15.2388 27.7102 15.0924 27.3852 14.8557 27.1503C14.6192 26.9153 14.2922 26.7699 13.9309 26.7699C13.8722 26.7699 13.8143 26.7738 13.7577 26.7812Z" fill="white"/>
<path d="M15.4598 26.8757C16.3297 26.5531 17.1325 26.0835 17.8333 25.4911C18.1289 25.2412 18.4066 24.969 18.664 24.6765C17.5803 25.5294 16.3557 26.1415 15.0688 26.5029C15.1531 26.5634 15.2325 26.6306 15.3058 26.7034C15.3604 26.7577 15.4118 26.8153 15.4598 26.8757Z" fill="white"/>
<mask id="mask2_55_183" style="mask-type:luminance" maskUnits="userSpaceOnUse" x="2" y="6" width="5" height="9">
<path d="M6.01889 11.8303L6.01933 12.186C5.48014 12.122 5.10107 12.0723 4.57357 12.3106C4.6412 12.7868 5.03095 13.3462 5.42712 13.6281C5.08237 13.6257 4.46167 13.6441 4.05498 13.968C4.03234 14.3135 4.18938 14.737 4.37402 14.9862C3.8084 14.9048 3.38477 13.9441 3.31348 13.5515C3.70644 13.4079 4.03176 13.2979 4.4586 13.2574C4.1083 12.8519 3.96018 12.5245 3.77612 12.0403C4.1346 11.8179 4.4085 11.6573 4.83578 11.5627C5.01356 11.5233 5.1947 11.5017 5.37657 11.4985C5.32881 10.5035 5.07273 9.53972 4.63624 8.66415C4.15213 7.69268 3.44554 6.83032 2.55518 6.15424C5.36021 7.3912 6.01699 10.266 6.01889 11.8303Z" fill="white"/>
</mask>
<g mask="url(#mask2_55_183)">
<path d="M6.01933 6.15424H2.55518V14.9862H6.01933V6.15424Z" fill="url(#paint2_linear_55_183)"/>
</g>
<mask id="mask3_55_183" style="mask-type:luminance" maskUnits="userSpaceOnUse" x="16" y="3" width="4" height="11">
<path d="M18.7283 3.85498C18.0455 4.73563 17.6029 5.97259 17.3881 7.03677C17.1949 7.99474 17.1985 8.99131 17.4117 9.96481C18.0322 9.81073 18.4932 9.89357 19.098 10.0772C19.0464 10.5924 18.9839 10.9562 18.756 11.4278C19.0555 11.3778 19.364 11.366 19.6739 11.3942L19.9402 11.4182C19.985 11.9514 19.764 12.7872 19.1965 13.0932C19.311 12.8281 19.3991 12.3356 19.3307 12.0097C18.7709 11.8813 18.3274 11.9987 17.9171 12.0351C18.2499 11.6933 18.4564 10.9702 18.3986 10.5424C18.0284 10.482 17.6501 10.5228 17.3014 10.6615L16.9687 10.7938L16.8763 10.4491C16.562 9.27843 16.5308 8.06917 16.7641 6.91345C16.9385 6.0492 17.7842 3.89415 18.7283 3.85513" fill="white"/>
</mask>
<g mask="url(#mask3_55_183)">
<path d="M19.9848 3.85498H16.5308V13.0932H19.9848V3.85498Z" fill="url(#paint3_linear_55_183)"/>
</g>
<mask id="mask4_55_183" style="mask-type:luminance" maskUnits="userSpaceOnUse" x="9" y="15" width="6" height="4">
<path d="M11.8754 15.8168C13.1103 15.6652 14.1889 16.1676 14.285 16.9392C14.3812 17.7107 13.4581 18.459 12.2233 18.6107C10.9884 18.7623 9.90964 18.2598 9.81352 17.4883C9.71739 16.7168 10.6405 15.9684 11.8753 15.8168" fill="white"/>
</mask>
<g mask="url(#mask4_55_183)">
<path d="M14.3812 15.6651H9.71777V18.7623H14.3812V15.6651Z" fill="url(#paint4_linear_55_183)"/>
</g>
<path d="M12.8206 22.8607C12.9451 22.8506 13.0686 22.8303 13.19 22.8H13.1902L13.6436 22.6533C13.6966 22.9241 13.8182 23.086 14.0129 23.2638C14.2076 23.4417 14.4582 23.5595 14.7341 23.5895C15.1477 23.6345 15.4972 23.4902 15.7438 23.2535C15.8963 23.1072 16.0101 22.9259 16.0759 22.7326C16.1407 22.5418 16.1587 22.3397 16.1209 22.1485C16.0677 21.8801 15.9003 21.6307 15.5922 21.4638C15.3469 21.3311 15.0704 21.3047 14.8183 21.3705C14.665 21.4106 14.5208 21.4847 14.3981 21.5896C14.7914 21.7644 15.0553 22.1117 15.0038 22.4646C14.7695 22.0038 14.1193 21.8425 13.6176 21.9765C13.3669 22.0436 13.1572 22.1931 13.0145 22.3899C12.9145 22.5274 12.847 22.6884 12.8203 22.8609" fill="white"/>
<path d="M13.8599 21.4728C14.0727 21.1898 14.3707 20.9981 14.6969 20.9129C14.758 20.897 14.8201 20.8848 14.8829 20.8764C14.8899 20.8156 14.8943 20.7547 14.8962 20.694C14.8187 20.7409 14.7365 20.7803 14.6499 20.8115C14.1859 20.9782 13.6948 20.9851 13.246 20.8522C12.9507 20.7648 12.6733 20.6165 12.4335 20.4136C12.2767 20.6606 12.0714 20.8709 11.8332 21.0337C11.4627 21.2871 11.0125 21.4254 10.5403 21.4094L10.5259 21.4087C10.615 21.6472 10.7437 21.8669 10.9048 22.0592C11.1536 22.3564 11.4805 22.5898 11.8594 22.7285C12.0175 22.7864 12.1792 22.826 12.3415 22.8476C12.3725 22.5786 12.4734 22.3266 12.6284 22.1132C12.8344 21.8297 13.1355 21.6146 13.4947 21.5185C13.6178 21.4856 13.7405 21.4712 13.8599 21.4724" fill="white"/>
<path fill-rule="evenodd" clip-rule="evenodd" d="M12.6953 28.4959C12.6881 27.8579 13.1496 27.3093 13.7832 27.203C14.4167 27.0965 15.0342 27.4638 15.2385 28.0688C15.2388 27.5522 14.931 27.0844 14.4544 26.8776C13.9777 26.6707 13.4229 26.7638 13.0414 27.1149C12.6596 27.4659 12.5238 28.0082 12.6951 28.4959" fill="#CCCCCC"/>
<mask id="mask5_55_183" style="mask-type:luminance" maskUnits="userSpaceOnUse" x="13" y="13" width="4" height="3">
<path d="M15.1043 13.0202C15.7222 13.0202 16.2232 13.5177 16.2232 14.1315C16.2232 14.7454 15.7222 15.2429 15.1043 15.2429C14.4864 15.2429 13.9854 14.7454 13.9854 14.1315C13.9854 13.5177 14.4863 13.0202 15.1043 13.0202Z" fill="white"/>
</mask>
<g mask="url(#mask5_55_183)">
<path d="M16.2232 13.0202H13.9854V15.2427H16.2232V13.0202Z" fill="url(#paint5_linear_55_183)"/>
</g>
<mask id="mask6_55_183" style="mask-type:luminance" maskUnits="userSpaceOnUse" x="6" y="14" width="4" height="4">
<path d="M8.32125 14.9816C7.50641 15.4156 7.05503 16.3123 7.19424 17.2202C7.44024 16.1041 8.33454 15.2423 9.46521 15.0316C8.70559 14.4716 7.7137 14.3272 6.82422 14.6474C7.34602 14.6032 7.86884 14.7198 8.3214 14.9816" fill="white"/>
</mask>
<g mask="url(#mask6_55_183)">
<path d="M9.46521 14.3272H6.82422V17.2202H9.46521V14.3272Z" fill="url(#paint6_linear_55_183)"/>
</g>
<path fill-rule="evenodd" clip-rule="evenodd" d="M2.52484 3.78981C2.11421 3.89064 1.76113 4.23101 1.47803 4.82541C1.03672 5.75219 0.781369 7.24334 0.753906 9.34644C1.18178 1.65406 5.73145 6.83 7.93902 10.2282C8.17406 10.0179 8.42897 9.83276 8.69703 9.66997C6.94173 6.86134 5.34302 4.98209 4.03458 4.17791C3.45362 3.82086 2.9457 3.68651 2.52499 3.78981" fill="#CCCCCC"/>
<path fill-rule="evenodd" clip-rule="evenodd" d="M16.6296 2.31796C15.3207 3.95405 14.1755 7.71979 13.5112 10.1209C15.289 5.88364 18.0346 -1.43182 21.1543 6.606C21.0462 6.25374 20.9327 5.89263 20.8139 5.52253C19.1936 1.09101 17.7777 0.882669 16.6296 2.31782" fill="#CCCCCC"/>
<path fill-rule="evenodd" clip-rule="evenodd" d="M20.6314 10.4656C20.7324 8.0072 18.2243 7.65871 18.728 3.8551C18.0452 4.73575 17.6026 5.97272 17.3879 7.03689C17.1946 7.99486 17.1983 8.99143 17.4114 9.96493C18.0319 9.81085 18.493 9.89369 19.0978 10.0774C19.0462 10.5926 18.9837 10.9563 18.7558 11.4279C19.0552 11.3779 19.3638 11.3661 19.6736 11.3943L19.9399 11.4184C19.9763 11.8506 19.8379 12.4815 19.4821 12.8679C20.1745 12.2594 20.5935 11.3933 20.6316 10.4656" fill="#CCCCCC"/>
<path fill-rule="evenodd" clip-rule="evenodd" d="M2.55509 6.15424C4.33011 9.00248 1.72579 10.1505 2.40711 12.6867C2.65895 13.6242 3.28096 14.4203 4.13071 14.8957C3.68955 14.6305 3.37402 13.8854 3.31339 13.5515C3.70635 13.4079 4.03167 13.2979 4.45852 13.2574C4.10822 12.8519 3.96009 12.5245 3.77603 12.0403C4.13451 11.8179 4.40841 11.6573 4.8357 11.5627C5.01348 11.5233 5.19462 11.5017 5.37649 11.4985C5.32872 10.5035 5.07264 9.53972 4.63615 8.66415C4.15204 7.69268 3.44545 6.83032 2.55509 6.15424Z" fill="#CCCCCC"/>
<path fill-rule="evenodd" clip-rule="evenodd" d="M4.39097 16.695C2.76567 17.6759 1.58841 16.218 0.858887 12.3211C1.04499 14.4644 1.36958 16.1476 1.83266 17.3708C2.2633 18.5085 2.80541 19.231 3.45853 19.5385C3.57102 18.4789 3.83498 17.3725 4.39097 16.6951" fill="#CCCCCC"/>
<path fill-rule="evenodd" clip-rule="evenodd" d="M22.1641 10.2854C22.4797 14.0474 21.6708 15.4775 19.7373 14.5756C20.3996 14.9875 21.0279 16.0607 21.4973 17.1104C22.946 16.8486 23.1684 14.5739 22.1641 10.2856" fill="#CCCCCC"/>
<path fill-rule="evenodd" clip-rule="evenodd" d="M5.24407 22.325C4.28272 20.6129 3.9796 18.6123 4.39126 16.6949C3.96821 18.0939 3.89064 20.6714 4.07689 22.1328L3.52412 22.2022C3.50323 22.2236 3.4822 22.2448 3.46102 22.266L3.4616 22.2666C3.40755 22.3203 3.35189 22.3729 3.29492 22.4246C3.6721 22.7353 4.31865 23.0539 4.8013 23.0616C4.59051 23.1038 4.39389 23.1278 4.20778 23.1358C4.10567 23.2868 4.00093 23.4303 3.89385 23.5658C3.86464 23.6028 3.83484 23.6395 3.80474 23.676C4.15358 23.8504 5.00611 24.0601 5.36824 23.9111C5.22567 24.029 5.04263 24.1091 4.83826 24.1573C4.83461 24.2828 4.82395 24.4048 4.80612 24.5227L4.80291 24.5438C5.35115 24.5056 6.46531 24.3582 6.94314 24.1445C6.82057 24.3762 6.66865 24.557 6.49481 24.6979C7.65659 25.0752 8.64059 25.1688 9.42592 25.1174C8.62248 25.0601 7.83437 24.8701 7.09389 24.5549C7.30045 24.261 7.42637 23.9189 7.45938 23.5622C6.94065 23.8487 6.36539 24.0206 5.77347 24.0659C5.9923 23.8631 6.17183 23.6219 6.30301 23.3547C5.78735 23.5508 5.22727 23.6021 4.68429 23.5028C5.08382 23.4696 5.45764 23.2932 5.73607 23.0065C5.215 22.9828 4.71541 22.7932 4.31135 22.4656C4.62659 22.4545 4.93935 22.4072 5.24378 22.3248" fill="#CCCCCC"/>
<path fill-rule="evenodd" clip-rule="evenodd" d="M20.2918 22.7172C20.0766 22.5916 19.855 22.4151 19.6215 22.1763C20.2194 22.385 20.766 22.6677 21.4619 22.3432C21.3601 22.2573 21.2625 22.1644 21.1701 22.0652C20.9392 22.0115 20.7137 21.8931 20.5016 21.6899C21.1278 21.7424 22.0506 21.4067 22.4151 21.0456C22.1888 20.9974 21.9694 20.9282 21.7601 20.8393C21.555 20.8825 21.3341 20.8963 21.1033 20.8774C21.2803 20.8426 22.1952 20.1555 22.3387 19.732C22.0647 19.6441 20.9799 19.3577 20.688 18.5439C20.9102 18.6281 21.1893 18.7195 21.4825 18.8116C21.1454 17.676 20.5634 16.264 19.7369 14.5755C20.151 15.6887 20.451 16.8404 20.6326 18.0132C20.3244 17.9614 20.0236 17.8719 19.7376 17.7466C19.8539 18.7627 20.5609 19.6161 21.5429 19.9247C21.2145 20.3953 20.6982 20.703 20.1256 20.7693C20.3609 20.9368 20.6198 21.0689 20.8938 21.1619C20.3917 21.2361 19.8791 21.1394 19.4391 20.8879C19.6478 21.3572 19.9585 21.7746 20.3492 22.1102C19.8786 21.9638 19.4333 21.7465 19.0291 21.4656C19.0313 21.9275 19.2224 22.3689 19.5588 22.6879C18.9464 23.1419 18.2591 23.4864 17.5278 23.7062C18.481 23.6076 19.5112 23.2396 20.2917 22.7172" fill="#CCCCCC"/>
<path fill-rule="evenodd" clip-rule="evenodd" d="M15.6137 21.8061C16.2064 22.569 15.3815 23.5106 14.4805 23.3301C14.1063 23.2551 13.7934 23.0021 13.6436 22.6533C13.6966 22.9241 13.8181 23.086 14.0128 23.2638C14.2076 23.4417 14.4581 23.5595 14.734 23.5895C15.1476 23.6345 15.4972 23.4902 15.7438 23.2535C15.8963 23.1072 16.0101 22.9259 16.0758 22.7326C16.1407 22.5418 16.1586 22.3397 16.1208 22.1485C16.0676 21.8801 15.9002 21.6307 15.5921 21.4638C15.3469 21.3311 15.0703 21.3047 14.8182 21.3705C14.6649 21.4106 14.5208 21.4847 14.3981 21.5896C14.7991 21.3406 15.3246 21.4344 15.6136 21.8062" fill="#CCCCCC"/>
</g>
<defs>
<linearGradient id="paint0_linear_55_183" x1="16.3467" y1="34.1785" x2="8.21974" y2="-2.17473" gradientUnits="userSpaceOnUse">
<stop stop-color="#FF00FF"/>
<stop offset="1" stop-color="#FFFF00"/>
</linearGradient>
<linearGradient id="paint1_linear_55_183" x1="15.7096" y1="34.3208" x2="7.58261" y2="-2.03239" gradientUnits="userSpaceOnUse">
<stop stop-color="#FF00FF"/>
<stop offset="1" stop-color="#FFFF00"/>
</linearGradient>
<linearGradient id="paint2_linear_55_183" x1="9.96131" y1="35.6058" x2="1.83449" y2="-0.747399" gradientUnits="userSpaceOnUse">
<stop stop-color="#FF00FF"/>
<stop offset="1" stop-color="#FFFF00"/>
</linearGradient>
<linearGradient id="paint3_linear_55_183" x1="23.7103" y1="32.5323" x2="15.5835" y2="-3.8211" gradientUnits="userSpaceOnUse">
<stop stop-color="#FF00FF"/>
<stop offset="1" stop-color="#FFFF00"/>
</linearGradient>
<linearGradient id="paint4_linear_55_183" x1="15.9163" y1="34.2747" x2="7.7893" y2="-2.07852" gradientUnits="userSpaceOnUse">
<stop stop-color="#FF00FF"/>
<stop offset="1" stop-color="#FFFF00"/>
</linearGradient>
<linearGradient id="paint5_linear_55_183" x1="19.4886" y1="33.476" x2="11.3617" y2="-2.87723" gradientUnits="userSpaceOnUse">
<stop stop-color="#FF00FF"/>
<stop offset="1" stop-color="#FFFF00"/>
</linearGradient>
<linearGradient id="paint6_linear_55_183" x1="12.5104" y1="35.0361" x2="4.38344" y2="-1.31731" gradientUnits="userSpaceOnUse">
<stop stop-color="#FF00FF"/>
<stop offset="1" stop-color="#FFFF00"/>
</linearGradient>
<clipPath id="clip0_55_183">
<rect width="24" height="30" fill="white"/>
</clipPath>
</defs>
</svg>
