<svg width="24" height="24" viewBox="0 0 24 24" fill="none" xmlns="http://www.w3.org/2000/svg">
<path d="M12.288 0C16.062 0 19.5564 1.674 21.8736 4.4928C21.9396 4.5727 21.9889 4.66507 22.0185 4.7644C22.0481 4.86373 22.0574 4.968 22.0458 5.071C22.0343 5.174 22.0022 5.27363 21.9513 5.36396C21.9005 5.45429 21.8321 5.53347 21.75 5.5968C21.583 5.72772 21.3715 5.78842 21.1605 5.76602C20.9494 5.74361 20.7554 5.63987 20.6196 5.4768C19.6064 4.2494 18.3334 3.26225 16.8924 2.58657C15.4514 1.91089 13.8783 1.56354 12.2868 1.5696C6.3888 1.5696 1.6068 6.24 1.6068 12C1.6068 17.76 6.3888 22.4304 12.2868 22.4304C13.9013 22.4367 15.4965 22.0794 16.954 21.3849C18.4115 20.6905 19.6939 19.6767 20.706 18.4188C20.8395 18.254 21.032 18.1478 21.2425 18.1224C21.4531 18.0971 21.6652 18.1548 21.834 18.2832C21.9168 18.3454 21.9862 18.4237 22.0381 18.5133C22.09 18.6029 22.1234 18.702 22.1363 18.8048C22.1492 18.9075 22.1413 19.0118 22.1131 19.1115C22.0848 19.2111 22.0369 19.3041 21.972 19.3848C19.6584 22.2768 16.1172 24 12.288 24C5.4996 24 0 18.6276 0 12C0 5.3724 5.5008 0 12.288 0ZM20.5176 8.592L23.7648 11.8404C24.0792 12.1536 24.0852 12.6564 23.7792 12.9636L20.6064 16.1352C20.532 16.2084 20.4439 16.2662 20.3471 16.3053C20.2503 16.3444 20.1467 16.3639 20.0423 16.3628C19.9379 16.3617 19.8348 16.3399 19.7388 16.2988C19.6429 16.2577 19.556 16.198 19.4832 16.1232C19.4081 16.0505 19.3482 15.9636 19.3069 15.8675C19.2656 15.7715 19.2437 15.6683 19.2424 15.5637C19.2412 15.4592 19.2607 15.3555 19.2997 15.2585C19.3388 15.1616 19.3967 15.0733 19.47 14.9988L21.3264 13.1424H8.9544C8.84999 13.144 8.7463 13.1249 8.64929 13.0863C8.55228 13.0476 8.46387 12.9902 8.38915 12.9172C8.31442 12.8443 8.25486 12.7573 8.21389 12.6613C8.17291 12.5652 8.15134 12.462 8.1504 12.3576C8.1504 11.9232 8.5104 11.5716 8.9544 11.5716H21.2772L19.4076 9.702C19.3327 9.62927 19.2729 9.54246 19.2317 9.44655C19.1905 9.35064 19.1687 9.24753 19.1674 9.14315C19.1662 9.03876 19.1856 8.93517 19.2246 8.83831C19.2635 8.74146 19.3212 8.65327 19.3944 8.5788C19.4689 8.50564 19.5571 8.44793 19.6539 8.40898C19.7508 8.37002 19.8544 8.3506 19.9587 8.35183C20.0631 8.35306 20.1662 8.37491 20.2621 8.41612C20.3581 8.45734 20.4449 8.51711 20.5176 8.592Z" fill="black" fill-opacity="0.4"/>
</svg>
