<svg width="24" height="24" viewBox="0 0 24 24" fill="none" xmlns="http://www.w3.org/2000/svg">
<path fill-rule="evenodd" clip-rule="evenodd" d="M8.7 6.5V12.5C8.7 12.9334 8.78536 13.3625 8.9512 13.7629C9.11704 14.1632 9.36011 14.527 9.66655 14.8335C9.97298 15.1399 10.3368 15.383 10.7371 15.5488C11.1375 15.7146 11.5666 15.8 12 15.8C12.4334 15.8 12.8625 15.7146 13.2629 15.5488C13.6632 15.383 14.027 15.1399 14.3335 14.8335C14.6399 14.527 14.883 14.1632 15.0488 13.7629C15.2146 13.3625 15.3 12.9334 15.3 12.5V6.5C15.3 5.62479 14.9523 4.78542 14.3335 4.16655C13.7146 3.54768 12.8752 3.2 12 3.2C11.1248 3.2 10.2854 3.54768 9.66655 4.16655C9.04768 4.78542 8.7 5.62479 8.7 6.5ZM12.6 19.976V23H11.4V19.976C9.52078 19.8252 7.76728 18.9722 6.48864 17.5868C5.20999 16.2014 4.49999 14.3853 4.5 12.5V11H5.7V12.5C5.7 14.1709 6.36375 15.7733 7.54523 16.9548C8.72671 18.1363 10.3291 18.8 12 18.8C13.6709 18.8 15.2733 18.1363 16.4548 16.9548C17.6363 15.7733 18.3 14.1709 18.3 12.5V11H19.5V12.5C19.5 14.3853 18.79 16.2014 17.5114 17.5868C16.2327 18.9722 14.4792 19.8252 12.6 19.976ZM7.5 6.5C7.5 5.30653 7.97411 4.16193 8.81802 3.31802C9.66193 2.47411 10.8065 2 12 2C13.1935 2 14.3381 2.47411 15.182 3.31802C16.0259 4.16193 16.5 5.30653 16.5 6.5V12.5C16.5 13.6935 16.0259 14.8381 15.182 15.682C14.3381 16.5259 13.1935 17 12 17C10.8065 17 9.66193 16.5259 8.81802 15.682C7.97411 14.8381 7.5 13.6935 7.5 12.5V6.5Z" fill="black" fill-opacity="0.4"/>
</svg>
