<svg width="356" height="374" viewBox="0 0 356 374" fill="none" xmlns="http://www.w3.org/2000/svg">
<g opacity="0.2">
<mask id="mask0_10_498" style="mask-type:luminance" maskUnits="userSpaceOnUse" x="1" y="-61" width="354" height="435">
<path d="M299.787 278.411C292.244 292.138 282.305 304.177 270.608 314.09C259.7 323.335 247.289 330.709 233.889 335.858C234.92 338.813 235.484 341.985 235.484 345.29C235.484 353.216 232.255 360.394 227.035 365.588C221.817 370.784 214.604 373.998 206.64 373.998C198.677 373.998 191.466 370.784 186.248 365.588C181.028 360.394 177.8 353.216 177.8 345.29C177.8 344.837 177.81 344.386 177.832 343.937C162.905 342.74 148.358 338.933 134.852 332.754C120.176 326.037 106.737 316.53 95.383 304.542C91.6994 303.526 88.0114 302.273 84.3104 300.843C76.3016 302.773 67.2853 302.439 59.0079 302.305L60.7956 296.385C61.307 294.685 61.697 292.957 61.9592 291.215C62.1239 290.121 62.2431 289.04 62.3102 287.979C54.529 287.727 46.5225 285.451 41.7424 282.285L45.4737 278.247C47.1487 276.433 48.7739 274.531 50.3427 272.542C50.7154 272.07 51.0816 271.598 51.4413 271.125C44.4661 269.73 38.1714 266.779 31.296 263.089L37.3047 258.697C39.8854 256.81 42.3491 254.699 44.672 252.389H44.6893C46.6958 250.391 48.5745 248.252 50.3123 245.983C50.1628 240.854 50.178 234.765 50.529 228.275C37.023 223.452 26.3035 210.545 18.3728 189.55C10.3294 168.257 5.01194 138.335 2.42254 99.7849V99.6921C-7.7486e-06 49.3289 4.16253 15.1941 13.4085 -4.26528C18.8993 -15.8219 26.2602 -22.5621 35.205 -24.7643C44.0046 -26.9298 53.9483 -24.5335 64.7891 -17.8579C85.5411 -5.07627 110.421 24.0632 137.327 67.2871C160.515 56.3086 187.477 54.7427 200.682 55.778C205.852 21.2377 227.568 -28.6833 239.297 -43.3782C262.147 -72 289.157 -71.0445 317.592 6.91167L317.649 7.09501C354.357 121.591 356.002 182.952 322.585 191.187C325.605 198.797 327.939 205.824 329.343 210.968C332.815 212.04 336.078 213.062 338.795 213.981L342.713 215.31L341.913 219.324C340.903 224.392 338.425 228.624 334.903 231.812H334.912C341.33 233.117 348.286 232.668 354.834 232.638C350.043 239.32 339.023 250.883 327.053 255.024C328.433 256.008 329.861 256.901 331.328 257.69L340.113 262.418C329.283 266.814 320.446 270.429 311.627 269.4L311.705 269.495C307.423 272.95 303.516 275.955 299.789 278.414" fill="white"/>
</mask>
<g mask="url(#mask0_10_498)">
<path d="M356 -72H0V374H356V-72Z" fill="url(#paint0_linear_10_498)"/>
</g>
<path d="M129.008 71.7605C102.971 30.0054 79.2573 2.0673 59.8487 -9.88829C51.2311 -15.1964 43.6969 -17.1937 37.4564 -15.658C31.3653 -14.1589 26.128 -9.09888 21.9286 -0.262131C13.324 17.8449 9.48869 50.4548 11.8202 99.1593C14.3533 136.803 19.4736 165.835 27.1854 186.246C33.5733 203.16 41.6146 213.901 51.3026 218.472C52.9711 202.72 56.8866 186.271 65.1337 176.201C58.8584 197 57.7078 235.319 60.4706 257.045L52.2712 258.076C51.9613 258.395 51.6493 258.71 51.3351 259.025L51.3438 259.034C50.542 259.832 49.7165 260.615 48.8714 261.383C54.4662 266.003 64.0567 270.739 71.216 270.854C68.0893 271.481 65.1727 271.837 62.4121 271.956C60.8975 274.201 59.3438 276.334 57.7555 278.349C57.3221 278.899 56.8801 279.444 56.4337 279.988C61.6082 282.581 74.254 285.697 79.6256 283.482C77.5108 285.236 74.7957 286.426 71.7643 287.142C71.7101 289.008 71.5519 290.822 71.2875 292.576L71.2399 292.888C79.3721 292.321 95.8988 290.13 102.987 286.953C101.169 290.397 98.915 293.085 96.3365 295.179C113.569 300.789 128.165 302.18 139.814 301.417C134.69 303.972 129.602 305.622 124.532 306.524C148.484 316.903 174.376 320.38 199.457 317.293C200.255 317.196 201.048 317.091 201.843 316.978C202.253 316.909 202.666 316.849 203.082 316.799C228.591 313.003 253.111 302.389 273.714 285.315C269.534 284.586 265.037 282.999 259.997 280.437C274.136 278.97 289.417 273.5 300.994 265.733C297.802 263.865 294.515 261.242 291.051 257.692C299.919 260.794 308.028 264.998 318.351 260.173C316.841 258.896 315.393 257.515 314.021 256.04C310.598 255.242 307.252 253.482 304.106 250.46C313.395 251.241 327.083 246.25 332.49 240.882C329.133 240.165 325.878 239.137 322.773 237.814C319.731 238.457 316.455 238.662 313.031 238.382C315.657 237.864 329.228 227.649 331.356 221.353C327.291 220.046 311.2 215.788 306.871 203.69C310.167 204.941 314.307 206.3 318.656 207.67C313.655 190.788 305.022 169.795 292.762 144.693C302.587 150.817 311.907 166.771 318.869 182.376C347.27 177.234 343.898 119.814 308.739 10.1082C284.704 -55.7738 263.7 -58.8711 246.671 -37.5352C227.256 -13.2121 210.268 42.772 200.415 78.4684C199.596 74.6938 199.392 70.173 199.683 65.1259C170.257 62.8267 131.886 72.7095 108.428 90.4369C113.983 82.6807 121.115 76.5638 129.006 71.7626" fill="white"/>
<mask id="mask1_10_498" style="mask-type:luminance" maskUnits="userSpaceOnUse" x="134" y="205" width="113" height="81">
<path d="M227.681 229.269C227.936 231.18 228.053 233.112 228.032 235.051C228.019 236.221 227.96 237.381 227.85 238.526C230.177 238.947 232.476 239.741 234.662 240.925C241.282 244.518 244.899 249.992 246.071 255.921C246.868 259.968 246.502 264.21 245.154 268.186C243.819 272.12 241.516 275.801 238.433 278.767C233.373 283.633 226.231 286.605 217.815 285.689C212.166 285.074 207.05 282.667 203.076 279.03C201.039 277.165 199.427 275.497 198.192 273.569C194.708 274.514 191.095 274.993 187.459 274.99C182.744 274.986 178.012 274.171 173.488 272.51C166.697 270.019 160.827 265.809 156.341 260.44C152.51 255.855 149.7 250.432 148.2 244.527C138.322 240.439 132.161 229.981 135.71 220.363C138.272 229.853 146.781 236.596 156.651 236.93C161.6 237.098 166.313 235.649 170.185 232.994C174.051 230.345 177.089 226.48 178.699 221.813L181.583 213.446L186.924 220.527C190.062 224.688 194.398 227.589 199.184 229.01C203.964 230.429 209.189 230.362 214.105 228.587C223.965 225.035 230.333 215.473 229.8 205.054C233.588 213.399 232.281 222.613 227.683 229.269" fill="white"/>
</mask>
<g mask="url(#mask1_10_498)">
<path d="M246.87 205.056H132.159V286.607H246.87V205.056Z" fill="url(#paint1_linear_10_498)"/>
</g>
<path d="M183.802 327.754C164.077 328.011 144.211 324.48 125.353 317.017C129.671 319.716 134.148 322.125 138.757 324.234C151.646 330.133 165.559 333.699 179.826 334.691C180.827 332.185 182.17 329.853 183.802 327.752" fill="white"/>
<path d="M204.068 326.147L203.57 326.219C199.44 326.872 195.743 328.822 192.92 331.635C189.412 335.127 187.238 339.956 187.238 345.29C187.238 350.624 189.41 355.451 192.92 358.943C196.428 362.437 201.28 364.598 206.638 364.598C211.997 364.598 216.849 362.435 220.357 358.943C223.867 355.451 226.038 350.622 226.038 345.29C226.038 339.958 223.867 335.127 220.357 331.635C216.849 328.14 211.997 325.979 206.638 325.979C205.767 325.979 204.909 326.037 204.068 326.147Z" fill="white"/>
<path d="M229.317 327.552C242.22 322.757 254.129 315.775 264.524 306.968C268.91 303.252 273.029 299.206 276.847 294.858C260.771 307.538 242.606 316.638 223.518 322.011C224.768 322.91 225.945 323.909 227.033 324.991C227.843 325.798 228.606 326.654 229.317 327.552Z" fill="white"/>
<mask id="mask2_10_498" style="mask-type:luminance" maskUnits="userSpaceOnUse" x="37" y="19" width="53" height="132">
<path d="M89.279 103.876L89.2855 109.165C81.2876 108.214 75.6646 107.474 67.8401 111.018C68.8433 118.097 74.6245 126.414 80.501 130.605C75.3873 130.568 66.1803 130.842 60.1477 135.658C59.8119 140.794 62.1412 147.09 64.8802 150.795C56.4901 149.585 50.2062 135.302 49.1487 129.466C54.9776 127.33 59.8032 125.695 66.1348 125.094C60.9386 119.065 58.7414 114.197 56.0112 107C61.3287 103.693 65.3915 101.305 71.7296 99.8992C74.3667 99.3125 77.0536 98.9911 79.7513 98.9437C79.0427 84.1518 75.2442 69.8236 68.7697 56.8068C61.5887 42.3643 51.1076 29.5438 37.9006 19.4928C79.5086 37.8823 89.2508 80.6209 89.279 103.876Z" fill="white"/>
</mask>
<g mask="url(#mask2_10_498)">
<path d="M89.2855 19.4928H37.9006V150.795H89.2855V19.4928Z" fill="url(#paint2_linear_10_498)"/>
</g>
<mask id="mask3_10_498" style="mask-type:luminance" maskUnits="userSpaceOnUse" x="246" y="-15" width="50" height="138">
<path d="M277.802 -14.6895C267.674 -1.59724 261.109 16.7923 257.924 32.6131C255.057 46.8549 255.111 61.6706 258.272 76.1432C267.477 73.8526 274.316 75.0842 283.287 77.8148C282.522 85.4739 281.594 90.8812 278.214 97.8932C282.656 97.1491 287.233 96.9744 291.828 97.3928L295.779 97.7509C296.444 105.677 293.165 118.103 284.747 122.652C286.446 118.711 287.753 111.389 286.738 106.544C278.435 104.636 271.856 106.381 265.77 106.922C270.706 101.84 273.77 91.0904 272.912 84.7298C267.421 83.8325 261.809 84.4386 256.636 86.5006L251.702 88.4677L250.331 83.3429C245.67 65.939 245.206 47.9614 248.667 30.7797C251.254 17.9312 263.798 -14.1072 277.802 -14.6874" fill="white"/>
</mask>
<g mask="url(#mask3_10_498)">
<path d="M296.442 -14.6895H245.206V122.652H296.442V-14.6895Z" fill="url(#paint3_linear_10_498)"/>
</g>
<mask id="mask4_10_498" style="mask-type:luminance" maskUnits="userSpaceOnUse" x="145" y="162" width="67" height="44">
<path d="M176.151 163.143C194.467 160.889 210.467 168.359 211.893 179.829C213.319 191.299 199.626 202.424 181.31 204.678C162.993 206.932 146.991 199.463 145.565 187.993C144.14 176.522 157.832 165.397 176.148 163.143" fill="white"/>
</mask>
<g mask="url(#mask4_10_498)">
<path d="M213.317 160.887H144.142V206.932H213.317V160.887Z" fill="url(#paint4_linear_10_498)"/>
</g>
<path d="M190.172 267.862C192.018 267.713 193.852 267.411 195.652 266.96H195.654L202.38 264.78C203.167 268.805 204.97 271.212 207.858 273.856C210.747 276.5 214.463 278.252 218.556 278.698C224.69 279.367 229.876 277.221 233.533 273.703C235.796 271.527 237.484 268.833 238.459 265.957C239.421 263.121 239.687 260.117 239.126 257.274C238.337 253.284 235.854 249.576 231.284 247.096C227.646 245.122 223.544 244.729 219.804 245.709C217.531 246.304 215.392 247.406 213.572 248.966C219.405 251.565 223.321 256.728 222.556 261.974C219.08 255.123 209.436 252.725 201.995 254.718C198.276 255.714 195.165 257.938 193.048 260.863C191.566 262.908 190.565 265.302 190.168 267.866" fill="white"/>
<path d="M205.592 247.229C208.749 243.021 213.169 240.172 218.008 238.906C218.914 238.669 219.834 238.487 220.766 238.362C220.87 237.459 220.935 236.553 220.963 235.651C219.815 236.348 218.595 236.934 217.31 237.398C210.428 239.876 203.143 239.978 196.487 238.002C192.105 236.704 187.99 234.499 184.434 231.482C182.107 235.155 179.063 238.28 175.529 240.7C170.034 244.468 163.355 246.524 156.352 246.287L156.137 246.276C157.459 249.822 159.368 253.087 161.758 255.947C165.448 260.365 170.298 263.835 175.919 265.897C178.263 266.758 180.662 267.347 183.069 267.668C183.529 263.669 185.026 259.922 187.325 256.75C190.38 252.535 194.846 249.337 200.175 247.909C202.001 247.419 203.821 247.206 205.592 247.223" fill="white"/>
<path fill-rule="evenodd" clip-rule="evenodd" d="M188.313 351.64C188.207 342.154 195.052 333.998 204.45 332.417C213.847 330.834 223.007 336.296 226.038 345.29C226.043 337.609 221.477 330.655 214.407 327.58C207.336 324.504 199.106 325.889 193.446 331.108C187.784 336.326 185.769 344.388 188.311 351.64" fill="#CCCCCC"/>
<mask id="mask5_10_498" style="mask-type:luminance" maskUnits="userSpaceOnUse" x="207" y="121" width="34" height="34">
<path d="M224.047 121.567C233.213 121.567 240.643 128.963 240.643 138.089C240.643 147.215 233.213 154.611 224.047 154.611C214.881 154.611 207.449 147.215 207.449 138.089C207.449 128.963 214.879 121.567 224.047 121.567Z" fill="white"/>
</mask>
<g mask="url(#mask5_10_498)">
<path d="M240.643 121.567H207.449V154.608H240.643V121.567Z" fill="url(#paint5_linear_10_498)"/>
</g>
<mask id="mask6_10_498" style="mask-type:luminance" maskUnits="userSpaceOnUse" x="101" y="143" width="40" height="42">
<path d="M123.435 150.726C111.348 157.179 104.653 170.509 106.718 184.007C110.367 167.414 123.632 154.602 140.404 151.47C129.136 143.145 114.423 140.999 101.229 145.759C108.969 145.101 116.724 146.835 123.437 150.726" fill="white"/>
</mask>
<g mask="url(#mask6_10_498)">
<path d="M140.402 140.999H101.227V184.007H140.402V140.999Z" fill="url(#paint6_linear_10_498)"/>
</g>
<path fill-rule="evenodd" clip-rule="evenodd" d="M37.4542 -15.6579C31.3631 -14.1589 26.1258 -9.09886 21.9265 -0.262113C15.3804 13.516 11.5927 35.6845 11.1853 66.9506C17.5321 -47.4094 85.0189 29.5395 117.765 80.0602C121.251 76.9327 125.032 74.1805 129.008 71.7605C102.971 30.0054 79.2573 2.06732 59.8487 -9.88828C51.2311 -15.1964 43.6969 -17.1936 37.4564 -15.6579" fill="#CCCCCC"/>
<path fill-rule="evenodd" clip-rule="evenodd" d="M246.675 -37.5395C227.26 -13.2164 210.272 42.7677 200.419 78.464C226.79 15.4702 267.516 -93.2863 313.792 26.2093C312.188 20.9724 310.505 15.6039 308.743 10.1017C284.708 -55.7803 263.705 -58.8775 246.675 -37.5417" fill="#CCCCCC"/>
<path fill-rule="evenodd" clip-rule="evenodd" d="M306.037 83.5888C307.534 47.0405 270.331 41.8597 277.802 -14.6873C267.674 -1.59504 261.109 16.7945 257.924 32.6153C255.057 46.8571 255.111 61.6728 258.272 76.1454C267.477 73.8548 274.316 75.0864 283.287 77.817C282.522 85.4761 281.594 90.8834 278.214 97.8954C282.656 97.1513 287.233 96.9766 291.828 97.3951L295.779 97.7531C296.318 104.178 294.266 113.559 288.988 119.302C299.259 110.257 305.473 97.3799 306.039 83.5888" fill="#CCCCCC"/>
<path fill-rule="evenodd" clip-rule="evenodd" d="M37.9005 19.4928C64.2301 61.8367 25.5993 78.9041 35.7055 116.609C39.4412 130.546 48.6677 142.381 61.2723 149.449C54.7284 145.506 50.048 134.429 49.1487 129.466C54.9776 127.33 59.8032 125.695 66.1347 125.094C60.9386 119.065 58.7414 114.197 56.0112 107C61.3286 103.693 65.3915 101.305 71.7296 99.8991C74.3666 99.3125 77.0535 98.9911 79.7513 98.9436C79.0427 84.1518 75.2442 69.8236 68.7696 56.8068C61.5887 42.3643 51.1076 29.5438 37.9005 19.4928Z" fill="#CCCCCC"/>
<path fill-rule="evenodd" clip-rule="evenodd" d="M65.1315 176.199C41.023 190.782 23.5603 169.107 12.739 111.173C15.4996 143.037 20.3143 168.061 27.1833 186.246C33.5712 203.16 41.6124 213.901 51.3004 218.472C52.9689 202.72 56.8844 186.271 65.1315 176.201" fill="#CCCCCC"/>
<path fill-rule="evenodd" clip-rule="evenodd" d="M328.765 80.91C333.445 136.838 321.447 158.098 292.767 144.691C302.591 150.815 311.911 166.769 318.873 182.374C340.362 178.483 343.662 144.665 328.765 80.9121" fill="#CCCCCC"/>
<path fill-rule="evenodd" clip-rule="evenodd" d="M77.7838 259.899C63.5237 234.445 59.0274 204.702 65.1337 176.197C58.8584 196.995 57.7078 235.315 60.4706 257.041L52.2712 258.072C51.9613 258.391 51.6493 258.706 51.3351 259.021L51.3438 259.03C50.542 259.828 49.7164 260.611 48.8714 261.378C54.4662 265.998 64.0567 270.735 71.216 270.849C68.0893 271.477 65.1727 271.833 62.4121 271.951C60.8974 274.197 59.3438 276.33 57.7555 278.344C57.3221 278.894 56.8801 279.44 56.4337 279.984C61.6082 282.576 74.254 285.693 79.6256 283.478C77.5108 285.231 74.7957 286.422 71.7642 287.138C71.7101 289.004 71.5519 290.818 71.2875 292.571L71.2399 292.884C79.3721 292.317 95.8987 290.125 102.987 286.948C101.169 290.393 98.915 293.08 96.3364 295.175C113.569 300.785 128.165 302.176 139.814 301.412C127.897 300.56 116.207 297.735 105.223 293.05C108.287 288.68 110.155 283.594 110.644 278.291C102.95 282.55 94.4166 285.106 85.6365 285.779C88.8824 282.764 91.5455 279.179 93.4914 275.206C85.8423 278.122 77.5346 278.884 69.4804 277.408C75.4067 276.914 80.9517 274.292 85.0818 270.03C77.3526 269.678 69.9419 266.859 63.9484 261.989C68.6245 261.823 73.2637 261.12 77.7795 259.894" fill="#CCCCCC"/>
<path fill-rule="evenodd" clip-rule="evenodd" d="M300.994 265.729C297.802 263.861 294.515 261.238 291.051 257.688C299.919 260.79 308.028 264.993 318.351 260.168C316.841 258.892 315.393 257.511 314.021 256.036C310.598 255.238 307.252 253.478 304.106 250.456C313.395 251.237 327.083 246.246 332.49 240.877C329.133 240.161 325.878 239.132 322.773 237.81C319.731 238.453 316.455 238.658 313.031 238.377C315.657 237.86 329.228 227.645 331.356 221.349C327.291 220.042 311.2 215.784 306.871 203.686C310.167 204.937 314.307 206.296 318.656 207.666C313.655 190.784 305.022 169.791 292.762 144.689C298.905 161.239 303.356 178.36 306.05 195.796C301.477 195.026 297.016 193.695 292.773 191.832C294.498 206.939 304.986 219.625 319.551 224.213C314.68 231.21 307.022 235.785 298.528 236.771C302.019 239.26 305.859 241.225 309.924 242.607C302.476 243.709 294.873 242.273 288.346 238.533C291.441 245.51 296.049 251.716 301.846 256.704C294.864 254.528 288.26 251.297 282.264 247.121C282.296 253.989 285.131 260.55 290.121 265.293C281.037 272.042 270.842 277.165 259.995 280.432C274.134 278.966 289.415 273.496 300.992 265.729" fill="#CCCCCC"/>
<path fill-rule="evenodd" clip-rule="evenodd" d="M231.607 252.184C240.398 263.527 228.162 277.525 214.797 274.842C209.247 273.727 204.606 269.965 202.383 264.78C203.169 268.805 204.972 271.212 207.86 273.856C210.749 276.5 214.465 278.252 218.558 278.698C224.693 279.367 229.878 277.221 233.536 273.703C235.798 271.527 237.486 268.833 238.461 265.957C239.423 263.121 239.689 260.117 239.128 257.274C238.339 253.284 235.856 249.576 231.286 247.096C227.648 245.122 223.546 244.729 219.806 245.709C217.533 246.304 215.395 247.406 213.574 248.966C219.522 245.264 227.319 246.658 231.605 252.186" fill="#CCCCCC"/>
</g>
<defs>
<linearGradient id="paint0_linear_10_498" x1="242.476" y1="436.12" x2="121.41" y2="-104.215" gradientUnits="userSpaceOnUse">
<stop stop-color="#FF00FF"/>
<stop offset="1" stop-color="#FFFF00"/>
</linearGradient>
<linearGradient id="paint1_linear_10_498" x1="233.024" y1="438.236" x2="111.958" y2="-102.099" gradientUnits="userSpaceOnUse">
<stop stop-color="#FF00FF"/>
<stop offset="1" stop-color="#FFFF00"/>
</linearGradient>
<linearGradient id="paint2_linear_10_498" x1="147.758" y1="457.34" x2="26.6939" y2="-82.9958" gradientUnits="userSpaceOnUse">
<stop stop-color="#FF00FF"/>
<stop offset="1" stop-color="#FFFF00"/>
</linearGradient>
<linearGradient id="paint3_linear_10_498" x1="351.703" y1="411.646" x2="230.639" y2="-128.692" gradientUnits="userSpaceOnUse">
<stop stop-color="#FF00FF"/>
<stop offset="1" stop-color="#FFFF00"/>
</linearGradient>
<linearGradient id="paint4_linear_10_498" x1="236.086" y1="437.55" x2="115.02" y2="-102.785" gradientUnits="userSpaceOnUse">
<stop stop-color="#FF00FF"/>
<stop offset="1" stop-color="#FFFF00"/>
</linearGradient>
<linearGradient id="paint5_linear_10_498" x1="289.081" y1="425.677" x2="168.015" y2="-114.659" gradientUnits="userSpaceOnUse">
<stop stop-color="#FF00FF"/>
<stop offset="1" stop-color="#FFFF00"/>
</linearGradient>
<linearGradient id="paint6_linear_10_498" x1="185.572" y1="448.87" x2="64.5057" y2="-91.4681" gradientUnits="userSpaceOnUse">
<stop stop-color="#FF00FF"/>
<stop offset="1" stop-color="#FFFF00"/>
</linearGradient>
</defs>
</svg>
