<svg width="24" height="24" viewBox="0 0 24 24" fill="none" xmlns="http://www.w3.org/2000/svg">
<path d="M14.4999 3.25C14.4999 2.58696 14.2365 1.95107 13.7677 1.48223C13.2988 1.01339 12.6629 0.75 11.9999 0.75C11.3369 0.75 10.701 1.01339 10.2321 1.48223C9.7633 1.95107 9.49991 2.58696 9.49991 3.25M21.0749 9.12L22.8062 20.37C22.8609 20.7261 22.8381 21.0898 22.7392 21.4362C22.6403 21.7826 22.4677 22.1035 22.2333 22.377C21.9988 22.6506 21.708 22.8702 21.3808 23.0208C21.0536 23.1715 20.6977 23.2497 20.3374 23.25H3.66241C3.30195 23.25 2.94574 23.1721 2.61821 23.0216C2.29068 22.8711 1.99957 22.6516 1.76484 22.378C1.53011 22.1044 1.35731 21.7834 1.25829 21.4368C1.15927 21.0902 1.13637 20.7263 1.19116 20.37L2.92241 9.12C3.01322 8.52949 3.31251 7.99102 3.76606 7.60213C4.21962 7.21323 4.79745 6.99963 5.39491 7H18.6049C19.2021 6.99993 19.7797 7.21367 20.233 7.60254C20.6863 7.9914 20.9841 8.5297 21.0749 9.12Z" stroke="black" stroke-opacity="0.4" stroke-width="1.5" stroke-linecap="round" stroke-linejoin="round"/>
</svg>
