<svg width="17" height="17" viewBox="0 0 17 17" fill="none" xmlns="http://www.w3.org/2000/svg">
<path d="M15.472 4.62071L12.0648 1.21356C11.7076 0.856427 11.2282 0.647967 10.7233 0.630177C10.2185 0.612387 9.72561 0.786589 9.34406 1.11769C8.96252 1.44879 8.72063 1.91219 8.66713 2.41453C8.61362 2.91686 8.75248 3.42081 9.05573 3.82485L8.89781 4.0027L5.75893 5.38162L4.38929 4.6415C4.23978 4.56096 4.06789 4.53191 3.90021 4.55886C3.73253 4.58581 3.5784 4.66725 3.46165 4.79058L2.12628 6.20493C1.98751 6.35044 1.91138 6.5446 1.91426 6.74565C1.91714 6.9467 1.99879 7.1386 2.14167 7.28008L5.40996 10.5483L0.628418 15.3298V16.0571H1.35571L6.13722 11.2756L9.39056 14.529C9.53131 14.6705 9.72158 14.7518 9.92116 14.7557C10.1207 14.7595 10.314 14.6856 10.4601 14.5496L11.8881 13.2276C12.0141 13.1111 12.0976 12.9558 12.1254 12.7864C12.1532 12.6171 12.1237 12.4432 12.0415 12.2925L11.2911 10.915L12.6453 8.00554L12.9218 7.67389C13.3316 7.95779 13.8329 8.07812 14.3269 8.01123C14.821 7.94434 15.2722 7.69507 15.5918 7.31242C15.9114 6.92977 16.0763 6.4414 16.0542 5.94332C16.032 5.44523 15.8243 4.97345 15.472 4.62071ZM14.7447 6.71742C14.5631 6.89898 14.3168 7.00098 14.06 7.00098C13.8032 7.00098 13.557 6.89898 13.3754 6.71742L12.8326 6.17465L11.7694 7.45002L10.1397 10.9514L11.0425 12.6089L9.94294 13.6268L3.04556 6.72947L4.07413 5.64015L5.71242 6.52546L9.51769 4.85377L10.4555 3.79746L9.9683 3.31015C9.7911 3.12767 9.69282 2.8828 9.69469 2.62845C9.69656 2.3741 9.79843 2.1307 9.97828 1.95085C10.1581 1.77099 10.4015 1.66912 10.6559 1.66725C10.9102 1.66538 11.1551 1.76367 11.3376 1.94086L14.7447 5.348C14.9263 5.52959 15.0283 5.77586 15.0283 6.03265C15.0283 6.28943 14.9263 6.5357 14.7447 6.71729L14.7447 6.71742Z" fill="black"/>
</svg>
