<svg width="20" height="20" viewBox="0 0 20 20" fill="none" xmlns="http://www.w3.org/2000/svg">
<path d="M11.9999 8.00001L8.99986 11M18.2879 1.03101C18.3828 0.99826 18.4849 0.992871 18.5827 1.01545C18.6806 1.03804 18.77 1.08768 18.841 1.15872C18.9119 1.22975 18.9614 1.3193 18.9838 1.41714C19.0063 1.51498 19.0007 1.61716 18.9679 1.71201L13.0439 18.642C13.0084 18.7432 12.9434 18.8314 12.8572 18.8952C12.771 18.959 12.6676 18.9954 12.5605 18.9997C12.4533 19.004 12.3473 18.976 12.2563 18.9194C12.1652 18.8627 12.0933 18.78 12.0499 18.682L8.83086 11.44C8.7767 11.3196 8.68029 11.2232 8.55986 11.169L1.31786 7.94901C1.22016 7.90538 1.13778 7.83346 1.08137 7.74254C1.02495 7.65162 0.997103 7.54587 1.00141 7.43895C1.00572 7.33204 1.04198 7.22887 1.10553 7.14278C1.16907 7.05669 1.25697 6.99163 1.35786 6.95601L18.2879 1.03101Z" stroke="black" stroke-width="1.5" stroke-linecap="round" stroke-linejoin="round"/>
</svg>
