<svg width="24" height="24" viewBox="0 0 24 24" fill="none" xmlns="http://www.w3.org/2000/svg">
<path d="M4.92864 5.14288C4.07616 5.14288 3.25859 5.48153 2.6558 6.08433C2.053 6.68712 1.71436 7.50469 1.71436 8.35717V15.6429C1.71436 16.4954 2.053 17.3129 2.6558 17.9157C3.25859 18.5185 4.07616 18.8572 4.92864 18.8572H13.0715C13.924 18.8572 14.7415 18.5185 15.3443 17.9157C15.9471 17.3129 16.2858 16.4954 16.2858 15.6429V15.2117L19.9304 17.7283C20.9246 18.4149 22.2824 17.7026 22.2824 16.494V7.5026C22.2824 6.29403 20.9246 5.58088 19.9304 6.26831L16.2858 8.78488V8.35717C16.2858 7.50469 15.9471 6.68712 15.3443 6.08433C14.7415 5.48153 13.924 5.14288 13.0715 5.14288H4.92864ZM16.2858 10.3466L20.6606 7.32603C20.6928 7.30382 20.7305 7.29084 20.7695 7.28849C20.8085 7.28614 20.8474 7.29451 20.882 7.3127C20.9166 7.33089 20.9456 7.3582 20.9658 7.39167C20.986 7.42514 20.9967 7.4635 20.9966 7.5026V16.494C20.9967 16.5331 20.986 16.5715 20.9658 16.605C20.9456 16.6384 20.9166 16.6657 20.882 16.6839C20.8474 16.7021 20.8085 16.7105 20.7695 16.7081C20.7305 16.7058 20.6928 16.6928 20.6606 16.6706L16.2858 13.6483V10.3466ZM3.00007 8.35717C3.00007 7.84568 3.20326 7.35514 3.56494 6.99346C3.92661 6.63179 4.41715 6.4286 4.92864 6.4286H13.0715C13.583 6.4286 14.0735 6.63179 14.4352 6.99346C14.7969 7.35514 15.0001 7.84568 15.0001 8.35717V15.6429C15.0001 16.1544 14.7969 16.6449 14.4352 17.0066C14.0735 17.3683 13.583 17.5715 13.0715 17.5715H4.92864C4.41715 17.5715 3.92661 17.3683 3.56494 17.0066C3.20326 16.6449 3.00007 16.1544 3.00007 15.6429V8.35717Z" fill="black" fill-opacity="0.4"/>
</svg>
