<svg width="30" height="30" viewBox="0 0 30 30" fill="none" xmlns="http://www.w3.org/2000/svg">
<path d="M17.4999 6.25C17.4999 5.58696 17.2365 4.95107 16.7677 4.48223C16.2988 4.01339 15.6629 3.75 14.9999 3.75C14.3369 3.75 13.701 4.01339 13.2321 4.48223C12.7633 4.95107 12.4999 5.58696 12.4999 6.25M24.0749 12.12L25.8062 23.37C25.8609 23.7261 25.8381 24.0898 25.7392 24.4362C25.6403 24.7826 25.4677 25.1035 25.2333 25.377C24.9988 25.6506 24.708 25.8702 24.3808 26.0208C24.0536 26.1715 23.6977 26.2497 23.3374 26.25H6.66241C6.30195 26.25 5.94574 26.1721 5.61821 26.0216C5.29068 25.8711 4.99957 25.6516 4.76484 25.378C4.53011 25.1044 4.35731 24.7834 4.25829 24.4368C4.15927 24.0902 4.13637 23.7263 4.19116 23.37L5.92241 12.12C6.01322 11.5295 6.31251 10.991 6.76606 10.6021C7.21962 10.2132 7.79745 9.99963 8.39491 10H21.6049C22.2021 9.99993 22.7797 10.2137 23.233 10.6025C23.6863 10.9914 23.9841 11.5297 24.0749 12.12Z" stroke="white" stroke-width="1.5" stroke-linecap="round" stroke-linejoin="round"/>
</svg>
