<svg width="24" height="24" viewBox="0 0 24 24" fill="none" xmlns="http://www.w3.org/2000/svg">
<path d="M4.93206 3.42857C4.07958 3.42857 3.26201 3.76722 2.65922 4.37002C2.05642 4.97281 1.71777 5.79038 1.71777 6.64286V17.3571C1.71777 18.2096 2.05642 19.0272 2.65922 19.63C3.26201 20.2328 4.07958 20.5714 4.93206 20.5714H19.0715C19.924 20.5714 20.7415 20.2328 21.3443 19.63C21.9471 19.0272 22.2858 18.2096 22.2858 17.3571V6.64286C22.2858 5.79038 21.9471 4.97281 21.3443 4.37002C20.7415 3.76722 19.924 3.42857 19.0715 3.42857H4.93206ZM3.00349 6.64286C3.00349 6.13137 3.20668 5.64083 3.56835 5.27915C3.93003 4.91748 4.42057 4.71429 4.93206 4.71429H19.0715C19.583 4.71429 20.0735 4.91748 20.4352 5.27915C20.7969 5.64083 21.0001 6.13137 21.0001 6.64286V17.3571C21.0001 17.8686 20.7969 18.3592 20.4352 18.7208C20.0735 19.0825 19.583 19.2857 19.0715 19.2857H4.93292C4.42143 19.2857 3.93089 19.0825 3.56921 18.7208C3.20753 18.3592 3.00435 17.8686 3.00435 17.3571L3.00349 6.64286ZM8.57149 8.78657V15.2151C8.57158 15.3632 8.61003 15.5088 8.6831 15.6376C8.75618 15.7664 8.86137 15.8741 8.98844 15.9501C9.11551 16.0262 9.26012 16.068 9.40816 16.0715C9.55621 16.0751 9.70265 16.0402 9.8332 15.9703L15.8332 12.756C15.9697 12.6827 16.0838 12.5738 16.1633 12.4408C16.2428 12.3078 16.2848 12.1558 16.2848 12.0009C16.2848 11.8459 16.2428 11.6939 16.1633 11.5609C16.0838 11.4279 15.9697 11.319 15.8332 11.2457L9.8332 8.03143C9.70271 7.96157 9.55635 7.92668 9.40838 7.93018C9.2604 7.93368 9.11585 7.97544 8.98881 8.05139C8.86177 8.12734 8.75655 8.23489 8.68342 8.36358C8.61029 8.49227 8.57172 8.6377 8.57149 8.78572" fill="black" fill-opacity="0.4"/>
</svg>
